<?xml version="1.0" encoding="UTF-8"?> <svg xmlns="http://www.w3.org/2000/svg" xmlns:xlink="http://www.w3.org/1999/xlink" width="165px" height="29px" viewBox="0 0 165 29"><!-- Generator: Sketch 62 (91390) - https://sketch.com --><title>SalesRight-Logo@1x</title><desc>Created with Sketch.</desc><g id="Home" stroke="none" stroke-width="1" fill="none" fill-rule="evenodd"><g id="redesign-home-v3" transform="translate(-161.000000, -30.000000)" fill-rule="nonzero"><g id="SalesRight-Logo" transform="translate(160.000000, 28.350000)"><path d="M22.3287319,5.24606942 L37.841589,5.24606942 C39.4156006,5.24606942 40.691589,6.52205788 40.691589,8.09606942 L40.691589,23.6089266 C40.691589,25.1829381 39.4156006,26.4589266 37.841589,26.4589266 L22.3287319,26.4589266 C20.7547203,26.4589266 19.4787319,25.1829381 19.4787319,23.6089266 L19.4787319,8.09606942 C19.4787319,6.52205788 20.7547203,5.24606942 22.3287319,5.24606942 Z" id="Rectangle" fill="#30ABE2" transform="translate(30.085160, 15.852498) rotate(-45.000000) translate(-30.085160, -15.852498) "></path><path d="M7.32551032,5.24750526 L22.8383675,5.24750526 C24.412379,5.24750526 25.6883675,6.52349372 25.6883675,8.09750526 L25.6883675,23.6103624 C25.6883675,25.1843739 24.412379,26.4603624 22.8383675,26.4603624 L7.32551032,26.4603624 C5.75149879,26.4603624 4.47551032,25.1843739 4.47551032,23.6103624 L4.47551032,8.09750526 C4.47551032,6.52349372 5.75149879,5.24750526 7.32551032,5.24750526 Z" id="Rectangle" fill="#89C8C8" transform="translate(15.081939, 15.853934) rotate(-45.000000) translate(-15.081939, -15.853934) "></path><g id="Group" opacity="0.75" transform="translate(14.500000, 1.107143)" fill="#9EDCF1"><path d="M13.561554,1.77387521 L13.3313904,2.00347421 L2.81214286,12.5660714 C2.20272745,13.1795491 1.87071838,14.0155719 1.89321429,14.88 L1.89321429,27.1471429 C1.89321429,28.1767857 0.581938896,28.5659617 0.581938896,28.5659617 C1.45878601,28.5659617 2.03723145,28.2401228 2.57964286,27.745 L2.81214286,27.5240431 L13.3632143,16.9946429 C14.017243,16.379771 14.4304066,15.5506286 14.4039644,14.6855033 L14.2821429,2.35821429 C14.2821429,1.32857143 15.5217743,0.928246834 15.5217743,0.928246834 C14.7972529,0.926178402 14.1120911,1.22858712 13.561554,1.77387521 Z" id="Shape"></path></g><path d="M55.7189286,22.4971429 C56.6005361,22.5639148 57.4814508,22.3591408 58.2432143,21.9103571 C58.7628157,21.5250429 59.0573263,20.9069854 59.0292857,20.2607143 C59.0436013,19.8743142 58.9516983,19.4913853 58.7635714,19.1535714 C58.5704842,18.8258996 58.3101162,18.5428909 57.9996429,18.3232143 C57.6233708,18.0514637 57.2187446,17.8213094 56.7928571,17.6367857 C56.3167857,17.4264286 55.7742857,17.2160714 55.1542857,17.0057143 C54.5550374,16.7975272 53.9674051,16.5573002 53.3939286,16.2860714 C52.8431215,16.0392244 52.3349137,15.7066472 51.8882143,15.3007143 C51.4509004,14.9105489 51.0969151,14.4360581 50.8475,13.9057143 C50.5669689,13.2914327 50.4306363,12.6211307 50.4489286,11.9460714 C50.3969523,10.4992115 51.0234685,9.11104797 52.1428571,8.19285714 C53.4187048,7.24352192 54.9826117,6.76262057 56.5714286,6.83107143 C57.5624163,6.81483866 58.550565,6.94162 59.5053571,7.2075 C60.2112794,7.38779081 60.8919086,7.65557936 61.5314286,8.00464286 L60.535,10.6064286 C59.9405527,10.2743183 59.3036219,10.0247606 58.6417857,9.86464286 C57.9638495,9.69991103 57.2690777,9.61445782 56.5714286,9.61 C55.856891,9.56867782 55.1476232,9.75471527 54.5453571,10.1414286 C54.0676942,10.4905144 53.7973313,11.0561968 53.8257143,11.6471429 C53.8157763,11.9973333 53.895827,12.3442197 54.0582143,12.6546429 C54.2378439,12.9463783 54.4706936,13.2017619 54.7446429,13.4075 C55.0922318,13.6472598 55.4631646,13.8512729 55.8517857,14.0164286 C56.2775456,14.2165773 56.7136361,14.3939701 57.1582143,14.5478571 C57.9885714,14.8578571 58.7303571,15.1678571 59.3725,15.4778571 C59.9712536,15.7659406 60.5205672,16.147097 61,16.6071429 C61.4510448,17.0348094 61.8025553,17.5564057 62.0296429,18.135 C62.2875484,18.8130626 62.4079811,19.5356587 62.3839286,20.2607143 C62.4521987,21.6950651 61.8207687,23.0734809 60.69,23.9585714 C59.230174,24.9301204 57.4907231,25.3931957 55.7410714,25.2760714 C55.0704918,25.2766697 54.400754,25.228567 53.7371429,25.1321429 C53.1987702,25.0527829 52.6661942,24.9381311 52.1428571,24.7889286 C51.7284764,24.6743922 51.3217192,24.5338761 50.925,24.3682143 C50.6471821,24.2531455 50.3771994,24.1200034 50.1167857,23.9696429 L51.0357143,21.3457143 C51.6271585,21.6678556 52.2505142,21.9275871 52.8957143,22.1207143 C53.8112739,22.3932261 54.7639531,22.52025 55.7189286,22.4971429 L55.7189286,22.4971429 Z" id="Path" fill="#ACBACB"></path><path d="M68.75,11.2375 C69.6258078,11.2167039 70.498597,11.3478096 71.3296429,11.625 C71.9666557,11.8502302 72.5374474,12.2307581 72.9903571,12.7321429 C73.4092463,13.2086795 73.7090138,13.7778582 73.865,14.3928571 C74.0479049,15.0939585 74.1372515,15.8161768 74.1307143,16.5407143 L74.1307143,24.6228571 C73.6546429,24.7225 72.935,24.8442857 71.9828571,24.9882143 C70.9047782,25.1419639 69.8168259,25.2159743 68.7278571,25.2096429 C67.9831905,25.2194133 67.2399678,25.1413749 66.5135714,24.9771429 C65.9042046,24.8481295 65.327717,24.5956806 64.8196429,24.2353628 C64.3450272,23.8969817 63.9640815,23.4436563 63.7125,22.9178571 C63.4296534,22.2847575 63.2934084,21.5959634 63.3139286,20.9028571 C63.2965344,20.2300851 63.4488361,19.5637649 63.7567857,18.9653571 C64.051344,18.4439179 64.4695674,18.0028823 64.9746429,17.6810714 C65.512356,17.3353138 66.109063,17.091377 66.735,16.9614286 C67.4268358,16.8174896 68.1319326,16.7469799 68.8385714,16.7510714 C69.2086223,16.7508208 69.5783481,16.7730044 69.9457143,16.8175 C70.3487837,16.8590756 70.7483708,16.9293733 71.1414286,17.0278571 L71.1414286,16.5185714 C71.1430715,16.1746228 71.0983841,15.8320196 71.0085714,15.5 C70.9314303,15.1844395 70.779542,14.8920544 70.5657143,14.6475 C70.3355095,14.3908443 70.0469031,14.1933768 69.7242857,14.0717857 C69.3043669,13.9272133 68.8617818,13.8597004 68.4178571,13.8725 C67.7614557,13.8692198 67.105938,13.9210687 66.4582143,14.0275 C65.9652191,14.1023861 65.4798566,14.220948 65.0078571,14.3817857 L64.6203571,11.8907143 C65.1765739,11.7079184 65.7468075,11.5709142 66.3253571,11.4810714 C67.123925,11.3225464 67.9358571,11.2409825 68.75,11.2375 L68.75,11.2375 Z M69.0046429,22.7296429 C69.745979,22.7481176 70.487396,22.6962184 71.2189286,22.5746429 L71.2189286,19.1646429 C70.9765495,19.0918768 70.7283792,19.0400203 70.4771429,19.0096429 C70.111094,18.9512877 69.740609,18.9253537 69.37,18.9321429 C69.0252651,18.930391 68.6809456,18.9563075 68.3403571,19.0096429 C68.0104476,19.0515109 67.6891556,19.1449097 67.3882143,19.2864286 C67.1184235,19.4187308 66.8861961,19.6166952 66.7128571,19.8621429 C66.2486278,20.6773924 66.4351839,21.7081152 67.1557143,22.3089286 C67.7158231,22.610644 68.3468421,22.7559696 68.9825,22.7296429 L69.0046429,22.7296429 Z" id="Shape" fill="#ACBACB"></path><path d="M81.7921429,25.1432143 C81.0440942,25.1416642 80.2995385,25.0411492 79.5778571,24.8442857 C79.0391456,24.6968182 78.5449039,24.4192825 78.1385714,24.0360714 C77.771455,23.6831589 77.5106329,23.2343914 77.3857143,22.7407143 C77.2325367,22.1628908 77.1580548,21.5670353 77.1642857,20.9692857 L77.1642857,5.63535714 L80.2532143,5.12607143 L80.2532143,20.3825 C80.2436607,20.6986477 80.2734123,21.014758 80.3417857,21.3235714 C80.3925754,21.5625693 80.4987566,21.7863083 80.6517857,21.9767857 C80.8247084,22.1638018 81.0416426,22.3046188 81.2828571,22.3864286 C81.6099188,22.4934369 81.9478018,22.5639839 82.2903571,22.5967857 L81.7921429,25.1432143 Z" id="Path" fill="#ACBACB"></path><path d="M83.2535714,18.29 C83.2300801,17.2403183 83.4066775,16.1957638 83.7739286,15.2121429 C84.0781467,14.3867749 84.5492624,13.6329898 85.1578571,12.9978571 C85.7183321,12.418877 86.3984536,11.9692411 87.1507143,11.6803571 C87.8781831,11.382542 88.6564333,11.2283958 89.4425,11.2264286 C91.0507207,11.1445221 92.6148961,11.7669589 93.7271429,12.9314286 C94.8541116,14.3793731 95.4026085,16.1945426 95.2660714,18.0242857 C95.2660714,18.2014286 95.2660714,18.3896429 95.2660714,18.6 C95.2660714,18.8103571 95.2660714,19.0096429 95.2660714,19.1757143 L86.4642857,19.1757143 C86.4880266,20.1169058 86.8865781,21.009661 87.5714286,21.6557143 C88.4057529,22.2962462 89.4447501,22.6110939 90.4942857,22.5414286 C91.1827831,22.5490169 91.8699178,22.4784463 92.5425,22.3310714 C93.042395,22.2344755 93.531805,22.0898771 94.0039286,21.8992857 L94.4135714,24.4235714 C94.1901632,24.5343806 93.9565799,24.6233647 93.7160714,24.6892857 C93.4171429,24.7778571 93.0739286,24.8664286 92.6975,24.9439286 C92.3210714,25.0214286 91.9003571,25.0878571 91.4575,25.1321429 C91.0093227,25.1861647 90.5582006,25.2120487 90.1067857,25.2096429 C89.0646214,25.229001 88.0280893,25.0524901 87.0510714,24.6892857 C86.2338049,24.3813869 85.4987338,23.8888135 84.9032143,23.25 C84.3360651,22.60742 83.9098808,21.8531116 83.6521429,21.0357143 C83.380245,20.1461118 83.2458376,19.2201942 83.2535714,18.29 L83.2535714,18.29 Z M92.1882143,16.9171429 C92.1914315,16.5081749 92.1316844,16.1011481 92.0110714,15.7103571 C91.8986582,15.3497458 91.7224095,15.0122482 91.4907143,14.7139286 C91.2593927,14.4364904 90.9728343,14.2102602 90.6492857,14.0496429 C89.8713868,13.7173208 88.9914704,13.7173208 88.2135714,14.0496429 C87.8685418,14.2210024 87.5601838,14.4579116 87.3057143,14.7471429 C87.0580863,15.0419178 86.8666978,15.3796623 86.7410714,15.7435714 C86.6036644,16.1005795 86.5070977,16.47199 86.4532143,16.8507143 L92.1882143,16.9171429 Z" id="Shape" fill="#ACBACB"></path><path d="M101.122857,22.6742857 C101.730983,22.7109912 102.339698,22.6126895 102.905357,22.3864286 C103.279746,22.1954227 103.502495,21.7979685 103.47,21.3789286 C103.473265,20.9318986 103.247727,20.5142372 102.872143,20.2717857 C102.257593,19.8761709 101.595422,19.5599655 100.901429,19.3307143 C100.336786,19.1203571 99.7942857,18.91 99.3514286,18.6775 C98.9169608,18.4640879 98.5114373,18.1962192 98.1446429,17.8803571 C97.8051824,17.5704435 97.5337431,17.1934444 97.3475,16.7732143 C97.134198,16.2695171 97.0322293,15.7256841 97.0485714,15.1789286 C97.0023986,14.0534329 97.5061568,12.9757208 98.3992857,12.2892857 C99.4591803,11.5138226 100.751964,11.1232536 102.063929,11.1821429 C103.374074,11.191301 104.674489,11.4080369 105.916786,11.8242857 L105.352143,14.3928571 C104.93354,14.2148768 104.500081,14.0740952 104.056786,13.9721429 C103.453163,13.8406852 102.836667,13.7775501 102.218929,13.7839286 C101.691138,13.7654222 101.166769,13.8756155 100.691071,14.105 C100.319622,14.2847138 100.089434,14.6669133 100.104286,15.0792857 C100.101535,15.2814283 100.143105,15.481719 100.226071,15.6660714 C100.31161,15.855778 100.445178,16.019876 100.613571,16.1421429 C100.84457,16.3123528 101.093274,16.4571205 101.355357,16.5739286 C101.665357,16.7178571 102.030714,16.8617857 102.4625,17.0167857 C103.097626,17.2499479 103.718673,17.5198072 104.3225,17.825 C104.788052,18.0505371 105.214227,18.3496073 105.584643,18.7107143 C105.905247,19.0227143 106.154525,19.4004081 106.315357,19.8178571 C106.470468,20.3120083 106.545229,20.8278596 106.536786,21.3457143 C106.600162,22.4904937 106.068643,23.5870145 105.130714,24.2464286 C103.912166,24.9698097 102.503958,25.3093227 101.089643,25.2207143 C100.140229,25.2433874 99.191729,25.1466776 98.2664286,24.9328571 C97.7560526,24.8023207 97.2533652,24.6433828 96.7607143,24.4567857 L97.2921429,21.8882143 C97.8298712,22.1010727 98.3809243,22.2785932 98.9417857,22.4196429 C99.6549027,22.5975875 100.387928,22.6831691 101.122857,22.6742857 Z" id="Path" fill="#ACBACB"></path><path d="M113.711071,7.06357143 C115.756794,6.93268672 117.794347,7.42277987 119.556786,8.46964286 C120.922242,9.44990036 121.684283,11.0660977 121.571786,12.7432143 C121.681666,14.9915986 120.21238,17.0135949 118.04,17.6035714 C118.364762,18.0021429 118.73381,18.4782143 119.147143,19.0317857 C119.545714,19.5964286 119.966429,20.2053571 120.387143,20.8585714 C120.807857,21.5117857 121.2175,22.1760714 121.616071,22.8625 C122.014643,23.5489286 122.346786,24.2242857 122.656786,24.8885714 L119.069643,24.8885714 C118.748571,24.2796429 118.394286,23.6596429 117.9625,23.0396429 C117.530714,22.4196429 117.220714,21.8217857 116.855357,21.235 C116.49,20.6482143 116.091429,20.1278571 115.748214,19.5853571 C115.405,19.0428571 115.0175,18.6 114.641071,18.1903571 L114.032143,18.1903571 L111.995,18.1903571 L111.995,24.8332143 L108.784286,24.8332143 L108.784286,7.49535714 C109.60977,7.32541886 110.445675,7.21075934 111.286429,7.15214286 C112.216429,7.09678571 113.035714,7.06357143 113.711071,7.06357143 Z M113.9325,9.8425 C113.257143,9.8425 112.626071,9.8425 112.050357,9.92 L112.050357,15.6217857 L113.456429,15.6217857 C114.145173,15.627563 114.833422,15.5831598 115.515714,15.4889286 C116.03774,15.4314819 116.544552,15.2775612 117.010357,15.035 C117.388777,14.8328725 117.70033,14.525166 117.907143,14.1492857 C118.130678,13.7074749 118.237399,13.2157981 118.217143,12.7210714 C118.235356,12.2442436 118.128483,11.7709494 117.907143,11.3482143 C117.707992,10.9713294 117.404289,10.6599381 117.0325,10.4514286 C116.607643,10.2193744 116.147612,10.0585506 115.670714,9.97535714 C115.09596,9.88324995 114.514576,9.83881292 113.9325,9.8425 Z" id="Shape" fill="#ACBACB"></path><path d="M127.683214,7.6725 C127.712502,8.18974841 127.509537,8.69310138 127.129643,9.04535714 C126.769224,9.38040347 126.293097,9.56291881 125.801071,9.55464286 C125.30204,9.56520558 124.818185,9.38276835 124.450357,9.04535714 C124.074313,8.69046195 123.872102,8.18897915 123.896786,7.6725 C123.870031,7.14918435 124.072057,6.64007973 124.450357,6.2775 C124.818185,5.9400888 125.30204,5.75765156 125.801071,5.76821429 C126.293097,5.75993834 126.769224,5.94245367 127.129643,6.2775 C127.511765,6.63749655 127.714522,7.14844395 127.683214,7.6725 L127.683214,7.6725 Z M127.362143,24.8885714 L124.273214,24.8885714 L124.273214,11.6028571 L127.362143,11.6028571 L127.362143,24.8885714 Z" id="Shape" fill="#ACBACB"></path><path d="M141.544643,23.5378571 C141.694622,25.2508981 141.106582,26.9465494 139.928214,28.1989286 C138.517156,29.2935488 136.74857,29.8225453 134.968214,29.6825 C133.443623,29.6754015 131.929937,29.4249893 130.484286,28.9407143 L131.048929,26.3167857 C131.627893,26.5523711 132.228649,26.7303728 132.8425,26.8482143 C133.570974,26.9971487 134.313299,27.0676695 135.056786,27.0585714 C136.004061,27.1518388 136.951052,26.8784399 137.702857,26.2946429 C138.253901,25.6934362 138.537544,24.8944426 138.488929,24.0803571 L138.488929,23.5710714 C138.101904,23.760151 137.697837,23.9121395 137.282143,24.025 C136.724973,24.1879201 136.146506,24.266293 135.566071,24.2575 C134.768574,24.2687551 133.976085,24.1297878 133.23,23.8478571 C132.544792,23.5928037 131.927357,23.1837055 131.425357,22.6521429 C130.900872,22.0843744 130.501102,21.4130616 130.251786,20.6814286 C129.958571,19.8000722 129.816332,18.8755197 129.831071,17.9467857 C129.8234,17.0339262 129.977072,16.1268902 130.285,15.2675 C130.559788,14.4875078 131.001912,13.7770857 131.580357,13.1860714 C132.165203,12.592053 132.871413,12.1313169 133.650714,11.8353571 C134.536885,11.4950843 135.48057,11.3296575 136.429643,11.3482143 C137.386658,11.3445128 138.342252,11.4222937 139.286071,11.5807143 C140.182857,11.7246429 140.946786,11.8907143 141.577857,12.0567857 L141.544643,23.5378571 Z M132.964286,17.8914286 C132.870624,18.917765 133.17593,19.940737 133.816786,20.7478571 C134.386422,21.3599884 135.195674,21.6917815 136.031071,21.6557143 C136.499743,21.6587444 136.966226,21.5915709 137.415,21.4564286 C137.806286,21.3501955 138.179467,21.1859956 138.522143,20.9692857 L138.522143,14.0717857 C138.255629,14.0087931 137.985804,13.960742 137.713929,13.9278571 C137.306205,13.8785713 136.895661,13.8563797 136.485,13.8614286 C135.502453,13.8066326 134.551246,14.2166355 133.916429,14.9685714 C133.2671,15.8015816 132.930198,16.8357904 132.964286,17.8914286 L132.964286,17.8914286 Z" id="Shape" fill="#ACBACB"></path><path d="M144.212857,24.8885714 L144.212857,5.63535714 L147.301786,5.12607143 L147.301786,11.7689286 C147.68807,11.6351625 148.084136,11.5315191 148.486429,11.4589286 C148.924962,11.3802196 149.369465,11.3394734 149.815,11.3371429 C150.724935,11.3069318 151.631828,11.4574536 152.483214,11.78 C153.141778,12.0520332 153.723456,12.4816386 154.177143,13.0310714 C154.615134,13.5988246 154.92145,14.2568357 155.073929,14.9575 C155.263304,15.7741734 155.356201,16.6102466 155.350714,17.4485714 L155.350714,24.9328571 L152.261786,24.9328571 L152.261786,17.8914286 C152.270038,17.2798147 152.225588,16.6686267 152.128929,16.0646429 C152.055898,15.6319598 151.897854,15.2180363 151.663929,14.8467857 C151.458222,14.5347425 151.160174,14.2947556 150.811429,14.1603571 C150.386805,14.0022711 149.935799,13.9271035 149.482857,13.9389286 C149.066058,13.9405038 148.65053,13.9850246 148.242857,14.0717857 C147.924505,14.1241518 147.610087,14.1981324 147.301786,14.2932143 L147.301786,24.8885714 L144.212857,24.8885714 Z" id="Path" fill="#ACBACB"></path><path d="M157.133214,8.06 L160.211071,7.55071429 L160.211071,11.5696429 L164.949643,11.5696429 L164.949643,14.1492857 L160.211071,14.1492857 L160.211071,19.5632143 C160.142517,20.364775 160.320191,21.1681701 160.720357,21.8660714 C161.150982,22.361016 161.794605,22.6168151 162.4475,22.5525 C162.951168,22.556298 163.453316,22.496784 163.942143,22.3753571 C164.377619,22.2572619 164.720833,22.1465476 164.971786,22.0432143 L165.481071,24.4789286 C165.023296,24.6681964 164.553597,24.8272284 164.075,24.955 C163.410567,25.1304412 162.724923,25.2124203 162.037857,25.1985714 C161.22716,25.2193087 160.419761,25.0878716 159.6575,24.8110714 C159.063121,24.5879012 158.542019,24.2047376 158.151786,23.7039286 C157.757998,23.1881424 157.485532,22.5902306 157.354643,21.9546429 C157.195172,21.1789812 157.120922,20.3882183 157.133214,19.5964286 L157.133214,8.06 Z" id="Path" fill="#ACBACB"></path></g></g></g></svg> 